<?xml version="1.0" encoding="utf-8"?>
<!-- Generator: Adobe Illustrator 16.0.0, SVG Export Plug-In . SVG Version: 6.00 Build 0)  -->
<!DOCTYPE svg PUBLIC "-//W3C//DTD SVG 1.1//EN" "http://www.w3.org/Graphics/SVG/1.1/DTD/svg11.dtd">
<svg version="1.1" xmlns="http://www.w3.org/2000/svg" xmlns:xlink="http://www.w3.org/1999/xlink" x="0px" y="0px" width="144px"
	 height="144px" viewBox="0 0 144 144" enable-background="new 0 0 144 144" xml:space="preserve">
<g id="Layer_1" display="none">
	<g display="inline" opacity="0.4">
		<defs>
			<rect id="SVGID_1_" x="24.136" y="24.087" opacity="0.4" width="96" height="95.802"/>
		</defs>
		<clipPath id="SVGID_2_">
			<use xlink:href="#SVGID_1_"  overflow="visible"/>
		</clipPath>
		<g clip-path="url(#SVGID_2_)">
			<defs>
				<rect id="SVGID_3_" x="24.136" y="24.087" width="96" height="95.802"/>
			</defs>
			<clipPath id="SVGID_4_">
				<use xlink:href="#SVGID_3_"  overflow="visible"/>
			</clipPath>
		</g>
		<g clip-path="url(#SVGID_2_)">
			<defs>
				<rect id="SVGID_5_" x="24.136" y="24.087" width="96" height="95.802"/>
			</defs>
			<clipPath id="SVGID_6_">
				<use xlink:href="#SVGID_5_"  overflow="visible"/>
			</clipPath>
			<g clip-path="url(#SVGID_6_)">
				<defs>
					<rect id="SVGID_7_" x="24.136" y="24.087" width="96" height="95.802"/>
				</defs>
				<clipPath id="SVGID_8_">
					<use xlink:href="#SVGID_7_"  overflow="visible"/>
				</clipPath>
			</g>
		</g>
		<g clip-path="url(#SVGID_2_)">
			<defs>
				<rect id="SVGID_9_" x="24.136" y="24.087" width="96" height="95.802"/>
			</defs>
			<clipPath id="SVGID_10_">
				<use xlink:href="#SVGID_9_"  overflow="visible"/>
			</clipPath>
			<g opacity="0.15" clip-path="url(#SVGID_10_)">
				<g>
					<defs>
						<rect id="SVGID_11_" x="24.136" y="24.087" width="96" height="95.802"/>
					</defs>
					<clipPath id="SVGID_12_">
						<use xlink:href="#SVGID_11_"  overflow="visible"/>
					</clipPath>
					<g clip-path="url(#SVGID_12_)">
						<defs>
							<rect id="SVGID_13_" x="24.136" y="24.087" width="96" height="95.802"/>
						</defs>
						<clipPath id="SVGID_14_">
							<use xlink:href="#SVGID_13_"  overflow="visible"/>
						</clipPath>
						<g clip-path="url(#SVGID_14_)">
							<defs>
								<rect id="SVGID_15_" x="24.136" y="24.087" width="96" height="95.802"/>
							</defs>
							<clipPath id="SVGID_16_">
								<use xlink:href="#SVGID_15_"  overflow="visible"/>
							</clipPath>
							
								<line clip-path="url(#SVGID_16_)" fill="none" stroke="#000000" stroke-width="0.25" stroke-miterlimit="10" x1="28.136" y1="119.889" x2="28.136" y2="24.087"/>
							
								<line clip-path="url(#SVGID_16_)" fill="none" stroke="#000000" stroke-width="0.25" stroke-miterlimit="10" x1="32.135" y1="119.889" x2="32.135" y2="24.087"/>
							
								<line clip-path="url(#SVGID_16_)" fill="none" stroke="#000000" stroke-width="0.25" stroke-miterlimit="10" x1="36.136" y1="119.889" x2="36.136" y2="24.087"/>
							
								<line clip-path="url(#SVGID_16_)" fill="none" stroke="#000000" stroke-width="0.25" stroke-miterlimit="10" x1="40.137" y1="119.889" x2="40.137" y2="24.087"/>
							
								<line clip-path="url(#SVGID_16_)" fill="none" stroke="#000000" stroke-width="0.25" stroke-miterlimit="10" x1="44.135" y1="119.889" x2="44.135" y2="24.087"/>
							
								<line clip-path="url(#SVGID_16_)" fill="none" stroke="#000000" stroke-width="0.25" stroke-miterlimit="10" x1="48.135" y1="119.889" x2="48.135" y2="24.087"/>
							
								<line clip-path="url(#SVGID_16_)" fill="none" stroke="#000000" stroke-width="0.25" stroke-miterlimit="10" x1="52.136" y1="119.889" x2="52.136" y2="24.087"/>
							
								<line clip-path="url(#SVGID_16_)" fill="none" stroke="#000000" stroke-width="0.25" stroke-miterlimit="10" x1="56.135" y1="119.889" x2="56.135" y2="24.087"/>
							
								<line clip-path="url(#SVGID_16_)" fill="none" stroke="#000000" stroke-width="0.25" stroke-miterlimit="10" x1="60.136" y1="119.889" x2="60.136" y2="24.087"/>
							
								<line clip-path="url(#SVGID_16_)" fill="none" stroke="#000000" stroke-width="0.25" stroke-miterlimit="10" x1="64.136" y1="119.889" x2="64.136" y2="24.087"/>
							
								<line clip-path="url(#SVGID_16_)" fill="none" stroke="#000000" stroke-width="0.25" stroke-miterlimit="10" x1="68.135" y1="119.889" x2="68.135" y2="24.087"/>
							
								<line clip-path="url(#SVGID_16_)" fill="none" stroke="#000000" stroke-width="0.25" stroke-miterlimit="10" x1="72.136" y1="119.889" x2="72.136" y2="24.087"/>
							
								<line clip-path="url(#SVGID_16_)" fill="none" stroke="#000000" stroke-width="0.25" stroke-miterlimit="10" x1="76.136" y1="119.889" x2="76.136" y2="24.087"/>
							
								<line clip-path="url(#SVGID_16_)" fill="none" stroke="#000000" stroke-width="0.25" stroke-miterlimit="10" x1="80.137" y1="119.889" x2="80.137" y2="24.087"/>
							
								<line clip-path="url(#SVGID_16_)" fill="none" stroke="#000000" stroke-width="0.25" stroke-miterlimit="10" x1="84.136" y1="119.889" x2="84.136" y2="24.087"/>
							
								<line clip-path="url(#SVGID_16_)" fill="none" stroke="#000000" stroke-width="0.25" stroke-miterlimit="10" x1="88.135" y1="119.889" x2="88.135" y2="24.087"/>
							
								<line clip-path="url(#SVGID_16_)" fill="none" stroke="#000000" stroke-width="0.25" stroke-miterlimit="10" x1="92.137" y1="119.889" x2="92.137" y2="24.087"/>
							
								<line clip-path="url(#SVGID_16_)" fill="none" stroke="#000000" stroke-width="0.25" stroke-miterlimit="10" x1="96.135" y1="119.889" x2="96.135" y2="24.087"/>
							
								<line clip-path="url(#SVGID_16_)" fill="none" stroke="#000000" stroke-width="0.25" stroke-miterlimit="10" x1="100.132" y1="119.889" x2="100.132" y2="24.087"/>
							
								<line clip-path="url(#SVGID_16_)" fill="none" stroke="#000000" stroke-width="0.25" stroke-miterlimit="10" x1="104.136" y1="119.889" x2="104.136" y2="24.087"/>
							
								<line clip-path="url(#SVGID_16_)" fill="none" stroke="#000000" stroke-width="0.25" stroke-miterlimit="10" x1="108.137" y1="119.889" x2="108.137" y2="24.087"/>
							
								<line clip-path="url(#SVGID_16_)" fill="none" stroke="#000000" stroke-width="0.25" stroke-miterlimit="10" x1="112.135" y1="119.889" x2="112.135" y2="24.087"/>
							
								<line clip-path="url(#SVGID_16_)" fill="none" stroke="#000000" stroke-width="0.25" stroke-miterlimit="10" x1="116.137" y1="119.889" x2="116.137" y2="24.087"/>
							
								<line clip-path="url(#SVGID_16_)" fill="none" stroke="#000000" stroke-width="0.25" stroke-miterlimit="10" x1="24.136" y1="28.079" x2="120.136" y2="28.079"/>
							
								<line clip-path="url(#SVGID_16_)" fill="none" stroke="#000000" stroke-width="0.25" stroke-miterlimit="10" x1="24.136" y1="32.07" x2="120.136" y2="32.07"/>
							
								<line clip-path="url(#SVGID_16_)" fill="none" stroke="#000000" stroke-width="0.25" stroke-miterlimit="10" x1="24.136" y1="36.062" x2="120.136" y2="36.062"/>
							
								<line clip-path="url(#SVGID_16_)" fill="none" stroke="#000000" stroke-width="0.25" stroke-miterlimit="10" x1="24.136" y1="40.054" x2="120.136" y2="40.054"/>
							
								<line clip-path="url(#SVGID_16_)" fill="none" stroke="#000000" stroke-width="0.25" stroke-miterlimit="10" x1="24.136" y1="44.045" x2="120.136" y2="44.045"/>
							
								<line clip-path="url(#SVGID_16_)" fill="none" stroke="#000000" stroke-width="0.25" stroke-miterlimit="10" x1="24.136" y1="48.038" x2="120.136" y2="48.038"/>
							
								<line clip-path="url(#SVGID_16_)" fill="none" stroke="#000000" stroke-width="0.25" stroke-miterlimit="10" x1="24.136" y1="52.029" x2="120.136" y2="52.029"/>
							
								<line clip-path="url(#SVGID_16_)" fill="none" stroke="#000000" stroke-width="0.25" stroke-miterlimit="10" x1="24.136" y1="56.021" x2="120.136" y2="56.021"/>
							
								<line clip-path="url(#SVGID_16_)" fill="none" stroke="#000000" stroke-width="0.25" stroke-miterlimit="10" x1="24.136" y1="60.012" x2="120.136" y2="60.012"/>
							
								<line clip-path="url(#SVGID_16_)" fill="none" stroke="#000000" stroke-width="0.25" stroke-miterlimit="10" x1="24.136" y1="64.004" x2="120.136" y2="64.004"/>
							
								<line clip-path="url(#SVGID_16_)" fill="none" stroke="#000000" stroke-width="0.25" stroke-miterlimit="10" x1="24.136" y1="67.996" x2="120.136" y2="67.996"/>
							
								<line clip-path="url(#SVGID_16_)" fill="none" stroke="#000000" stroke-width="0.25" stroke-miterlimit="10" x1="24.136" y1="71.988" x2="120.136" y2="71.988"/>
							
								<line clip-path="url(#SVGID_16_)" fill="none" stroke="#000000" stroke-width="0.25" stroke-miterlimit="10" x1="24.136" y1="75.979" x2="120.136" y2="75.979"/>
							
								<line clip-path="url(#SVGID_16_)" fill="none" stroke="#000000" stroke-width="0.25" stroke-miterlimit="10" x1="24.136" y1="79.972" x2="120.136" y2="79.972"/>
							
								<line clip-path="url(#SVGID_16_)" fill="none" stroke="#000000" stroke-width="0.25" stroke-miterlimit="10" x1="24.136" y1="83.962" x2="120.136" y2="83.962"/>
							
								<line clip-path="url(#SVGID_16_)" fill="none" stroke="#000000" stroke-width="0.25" stroke-miterlimit="10" x1="24.136" y1="87.955" x2="120.136" y2="87.955"/>
							
								<line clip-path="url(#SVGID_16_)" fill="none" stroke="#000000" stroke-width="0.25" stroke-miterlimit="10" x1="24.136" y1="91.945" x2="120.136" y2="91.945"/>
							
								<line clip-path="url(#SVGID_16_)" fill="none" stroke="#000000" stroke-width="0.25" stroke-miterlimit="10" x1="24.136" y1="95.938" x2="120.136" y2="95.938"/>
							
								<line clip-path="url(#SVGID_16_)" fill="none" stroke="#000000" stroke-width="0.25" stroke-miterlimit="10" x1="24.136" y1="99.93" x2="120.136" y2="99.93"/>
							
								<line clip-path="url(#SVGID_16_)" fill="none" stroke="#000000" stroke-width="0.25" stroke-miterlimit="10" x1="24.136" y1="103.921" x2="120.136" y2="103.921"/>
							
								<line clip-path="url(#SVGID_16_)" fill="none" stroke="#000000" stroke-width="0.25" stroke-miterlimit="10" x1="24.136" y1="107.913" x2="120.136" y2="107.913"/>
							
								<line clip-path="url(#SVGID_16_)" fill="none" stroke="#000000" stroke-width="0.25" stroke-miterlimit="10" x1="24.136" y1="111.904" x2="120.136" y2="111.904"/>
							
								<line clip-path="url(#SVGID_16_)" fill="none" stroke="#000000" stroke-width="0.25" stroke-miterlimit="10" x1="24.136" y1="115.897" x2="120.136" y2="115.897"/>
						</g>
						<path clip-path="url(#SVGID_14_)" d="M24.636,119.387h94.995V24.586H24.636V119.387z M24.136,24.087h96v95.802h-96V24.087z"/>
					</g>
				</g>
			</g>
		</g>
		<g clip-path="url(#SVGID_2_)">
			<defs>
				<rect id="SVGID_17_" x="24.136" y="24.087" width="96" height="95.802"/>
			</defs>
			<clipPath id="SVGID_18_">
				<use xlink:href="#SVGID_17_"  overflow="visible"/>
			</clipPath>
			<g clip-path="url(#SVGID_18_)">
				<defs>
					<rect id="SVGID_19_" x="24.136" y="24.087" width="96" height="95.802"/>
				</defs>
				<clipPath id="SVGID_20_">
					<use xlink:href="#SVGID_19_"  overflow="visible"/>
				</clipPath>
				<g opacity="0.4" clip-path="url(#SVGID_20_)">
					<g>
						<defs>
							<rect id="SVGID_21_" x="24.136" y="24.087" width="96" height="95.802"/>
						</defs>
						<clipPath id="SVGID_22_">
							<use xlink:href="#SVGID_21_"  overflow="visible"/>
						</clipPath>
						<g clip-path="url(#SVGID_22_)">
							<defs>
								<rect id="SVGID_23_" x="24.136" y="24.087" width="96" height="95.802"/>
							</defs>
							<clipPath id="SVGID_24_">
								<use xlink:href="#SVGID_23_"  overflow="visible"/>
							</clipPath>
							
								<line clip-path="url(#SVGID_24_)" fill="none" stroke="#000000" stroke-width="0.25" stroke-miterlimit="10" x1="72.136" y1="24.087" x2="72.136" y2="119.889"/>
							
								<line clip-path="url(#SVGID_24_)" fill="none" stroke="#000000" stroke-width="0.25" stroke-miterlimit="10" x1="120.136" y1="71.988" x2="24.136" y2="71.988"/>
							
								<line clip-path="url(#SVGID_24_)" fill="none" stroke="#000000" stroke-width="0.25" stroke-miterlimit="10" x1="120.136" y1="56.021" x2="24.136" y2="56.021"/>
							
								<line clip-path="url(#SVGID_24_)" fill="none" stroke="#000000" stroke-width="0.25" stroke-miterlimit="10" x1="120.136" y1="87.955" x2="24.136" y2="87.955"/>
							
								<line clip-path="url(#SVGID_24_)" fill="none" stroke="#000000" stroke-width="0.25" stroke-miterlimit="10" x1="120.136" y1="103.921" x2="24.136" y2="103.921"/>
							
								<line clip-path="url(#SVGID_24_)" fill="none" stroke="#000000" stroke-width="0.25" stroke-miterlimit="10" x1="119.847" y1="40.1" x2="23.848" y2="40.1"/>
							
								<line clip-path="url(#SVGID_24_)" fill="none" stroke="#000000" stroke-width="0.25" stroke-miterlimit="10" x1="88.135" y1="119.889" x2="88.135" y2="24.087"/>
							
								<line clip-path="url(#SVGID_24_)" fill="none" stroke="#000000" stroke-width="0.25" stroke-miterlimit="10" x1="56.135" y1="119.889" x2="56.135" y2="24.087"/>
							
								<line clip-path="url(#SVGID_24_)" fill="none" stroke="#000000" stroke-width="0.25" stroke-miterlimit="10" x1="40.149" y1="119.889" x2="40.149" y2="24.087"/>
							
								<line clip-path="url(#SVGID_24_)" fill="none" stroke="#000000" stroke-width="0.25" stroke-miterlimit="10" x1="104.136" y1="119.889" x2="104.136" y2="24.087"/>
							
								<line clip-path="url(#SVGID_24_)" fill="none" stroke="#000000" stroke-width="0.25" stroke-miterlimit="10" x1="119.633" y1="24.586" x2="24.636" y2="119.389"/>
							
								<line clip-path="url(#SVGID_24_)" fill="none" stroke="#000000" stroke-width="0.25" stroke-miterlimit="10" x1="24.636" y1="24.586" x2="119.633" y2="119.389"/>
							<path clip-path="url(#SVGID_24_)" fill="none" stroke="#000000" stroke-width="0.25" stroke-miterlimit="10" d="
								M72.136,24.425c-26.342,0-47.66,21.278-47.66,47.562c0,26.286,21.318,47.561,47.66,47.561
								c26.34,0,47.661-21.275,47.661-47.561C119.797,45.703,98.476,24.425,72.136,24.425z"/>
							<path clip-path="url(#SVGID_24_)" fill="none" stroke="#000000" stroke-width="0.25" stroke-miterlimit="10" d="
								M72.136,39.94c-17.749,0-32.114,14.337-32.114,32.048c0,17.709,14.365,32.047,32.114,32.047s32.113-14.338,32.113-32.047
								C104.249,54.277,89.885,39.94,72.136,39.94z"/>
							<path clip-path="url(#SVGID_24_)" d="M119.633,119.389H24.636V24.586h94.997V119.389z M120.136,24.087h-96v95.802h96V24.087z
								"/>
							
								<rect x="32.135" y="32.07" clip-path="url(#SVGID_24_)" fill="none" stroke="#000000" stroke-width="0.25" stroke-miterlimit="10" width="80" height="79.834"/>
						</g>
					</g>
				</g>
			</g>
		</g>
	</g>
</g>
<g id="brand__x26__creative">
	<g>
		<path d="M72.136,27.889c24.261,0,43.998,19.692,43.998,43.898s-19.737,43.899-43.998,43.899
			c-24.261,0-43.999-19.693-43.999-43.899S47.875,27.889,72.136,27.889 M72.136,23.889c-26.509,0-47.999,21.445-47.999,47.898
			c0,26.454,21.49,47.899,47.999,47.899c26.507,0,47.998-21.445,47.998-47.899C120.134,45.334,98.643,23.889,72.136,23.889
			L72.136,23.889z"/>
	</g>
	<path fill="none" stroke="#000000" stroke-width="4" stroke-linejoin="round" stroke-miterlimit="10" d="M80.308,84.922v5.641
		H64.118v-5.515l-0.179-0.119c-0.058-0.035-0.114-0.071-0.172-0.105c-4.543-2.808-7.571-7.835-7.571-13.563
		c0-8.794,7.125-15.917,15.92-15.917c8.788,0,15.917,7.123,15.917,15.917c0,5.793-2.984,10.816-7.613,13.604L80.308,84.922z"/>
	<path fill="none" stroke="#000000" stroke-width="4" stroke-linejoin="round" stroke-miterlimit="10" d="M80.274,97.745
		c0,0-1.248,4.895-8.159,4.895s-8.032-4.924-8.032-4.924l0.035-7.153h16.189L80.274,97.745z"/>
	<path fill="none" stroke="#000000" stroke-width="4" stroke-linejoin="round" stroke-miterlimit="10" d="M62.806,97.716"/>
	<path fill="none" stroke="#000000" stroke-width="4" stroke-linejoin="round" stroke-miterlimit="10" d="M82.598,97.75"/>
	
		<line fill="none" stroke="#000000" stroke-width="4" stroke-linejoin="round" stroke-miterlimit="10" x1="64.198" y1="98.667" x2="80.291" y2="94.083"/>
	
		<line fill="none" stroke="#000000" stroke-width="4" stroke-linecap="round" stroke-linejoin="round" stroke-miterlimit="10" x1="72.135" y1="48.038" x2="72.136" y2="39.94"/>
	
		<line fill="none" stroke="#000000" stroke-width="4" stroke-linecap="round" stroke-linejoin="round" stroke-miterlimit="10" x1="47.425" y1="69.788" x2="39.327" y2="69.787"/>
	
		<line fill="none" stroke="#000000" stroke-width="4" stroke-linecap="round" stroke-linejoin="round" stroke-miterlimit="10" x1="104.425" y1="69.788" x2="96.327" y2="69.787"/>
	
		<line fill="none" stroke="#000000" stroke-width="4" stroke-linecap="round" stroke-linejoin="round" stroke-miterlimit="10" x1="92.124" y1="55.582" x2="97.851" y2="49.856"/>
	
		<line fill="none" stroke="#000000" stroke-width="4" stroke-linecap="round" stroke-linejoin="round" stroke-miterlimit="10" x1="48.569" y1="48.746" x2="54.293" y2="54.472"/>
	
		<line fill="none" stroke="#000000" stroke-width="4" stroke-linecap="round" stroke-linejoin="round" stroke-miterlimit="10" x1="43.768" y1="89.192" x2="50.431" y2="84.591"/>
	
		<line fill="none" stroke="#000000" stroke-width="4" stroke-linecap="round" stroke-linejoin="round" stroke-miterlimit="10" x1="99.788" y1="89.192" x2="93.124" y2="84.591"/>
</g>
<g id="Digital_platforms" display="none">
	<path d="M49.298,58.167h45.354v-5.04H49.298c-2.771,0-5.04,2.269-5.04,5.04v30.237c0,2.771,2.268,5.038,5.04,5.038h10.079v-5.038
		H49.298V58.167z M74.495,73.285H64.416v4.485c-1.538,1.386-2.52,3.35-2.52,5.595c0,2.239,0.982,4.207,2.52,5.592v4.484h10.079
		v-4.484c1.538-1.385,2.52-3.377,2.52-5.592c0-2.219-0.981-4.209-2.52-5.595V73.285z M69.456,87.144c-2.092,0-3.78-1.688-3.78-3.778
		c0-2.094,1.688-3.781,3.78-3.781c2.092,0,3.779,1.688,3.779,3.781C73.234,85.455,71.548,87.144,69.456,87.144z M97.173,63.206
		H82.056c-1.263,0-2.521,1.259-2.521,2.52v25.197c0,1.26,1.259,2.519,2.521,2.519h15.117c1.26,0,2.519-1.259,2.519-2.519V65.726
		C99.691,64.465,98.433,63.206,97.173,63.206z M94.652,88.403H84.574V68.245h10.078V88.403z"/>
	<g display="inline">
		<path d="M72.136,27.889c24.261,0,43.998,19.692,43.998,43.898s-19.737,43.899-43.998,43.899
			c-24.261,0-43.999-19.693-43.999-43.899S47.875,27.889,72.136,27.889 M72.136,23.889c-26.509,0-47.999,21.445-47.999,47.898
			c0,26.454,21.49,47.899,47.999,47.899c26.507,0,47.998-21.445,47.998-47.899C120.134,45.334,98.643,23.889,72.136,23.889
			L72.136,23.889z"/>
	</g>
	<g display="inline">
		<path fill="none" stroke="#000000" stroke-width="4" stroke-miterlimit="10" d="M57.875,90H50.5c-2.2,0-4-1.8-4-4V58.021
			c0-2.2,1.8-4,4-4h44.125"/>
	</g>
	<g display="inline">
		<path fill="none" stroke="#000000" stroke-width="4" stroke-miterlimit="10" d="M98.25,86c0,2.2-1.8,4-4,4H84.137
			c-2.2,0-4-1.8-4-4V66.198c0-2.2,1.8-4,4-4H94.25c2.2,0,4,1.8,4,4V86z"/>
	</g>
	<path display="inline" fill="none" stroke="#000000" stroke-width="4" stroke-miterlimit="10" d="M73.045,81.432
		c0-2.945-2.388-5.333-5.333-5.333l0,0c-2.945,0-5.333,2.388-5.333,5.333l0,0c0,2.945,2.388,5.333,5.333,5.333l0,0
		C70.657,86.765,73.045,84.377,73.045,81.432L73.045,81.432z"/>
	
		<rect x="65.381" y="72.667" display="inline" fill="none" stroke="#000000" stroke-width="4" stroke-miterlimit="10" width="4.494" height="3.368"/>
	
		<rect x="65.381" y="86.765" display="inline" fill="none" stroke="#000000" stroke-width="4" stroke-miterlimit="10" width="4.494" height="3.368"/>
	<circle display="inline" cx="89.193" cy="83.25" r="2.432"/>
</g>
<g id="shopper_marketing__x26__retail" display="none">
	<polygon display="inline" fill="none" stroke="#000000" stroke-width="4" stroke-linejoin="round" stroke-miterlimit="10" points="
		76.375,74.015 71.002,75.4 68.756,66.696 70.834,63.651 74.127,65.31 	"/>
	
		<rect x="48.426" y="56.948" display="inline" fill="none" stroke="#000000" stroke-width="4" stroke-linejoin="round" stroke-miterlimit="10" width="41.554" height="34.791"/>
	
		<polyline display="inline" fill="none" stroke="#000000" stroke-width="4" stroke-linejoin="round" stroke-miterlimit="10" points="
		48.426,56.834 54.001,51.036 95.407,51.036 95.407,85.938 89.98,91.738 	"/>
	
		<line display="inline" fill="none" stroke="#000000" stroke-width="4" stroke-linejoin="round" stroke-miterlimit="10" x1="89.2" y1="57.54" x2="94.701" y2="52.039"/>
	
		<path display="inline" fill="none" stroke="#000000" stroke-width="4" stroke-linecap="round" stroke-linejoin="round" stroke-miterlimit="10" d="
		M81.246,62.593c0,0,1.003-16.687-11.485-16.687c-11.922,0-11.485,16.687-11.485,16.687"/>
	
		<path display="inline" fill="none" stroke="#000000" stroke-width="4" stroke-linecap="round" stroke-linejoin="round" stroke-miterlimit="10" d="
		M88.113,49.861c-1.615-3.699-4.461-7.26-9.426-7.26c-2.823,0-4.961,1.151-6.577,2.825"/>
	<g display="inline">
		<path d="M72.136,27.889c24.261,0,43.998,19.692,43.998,43.898s-19.737,43.899-43.998,43.899
			c-24.261,0-43.999-19.693-43.999-43.899S47.875,27.889,72.136,27.889 M72.136,23.889c-26.509,0-47.999,21.445-47.999,47.898
			c0,26.454,21.49,47.899,47.999,47.899c26.507,0,47.998-21.445,47.998-47.899C120.134,45.334,98.643,23.889,72.136,23.889
			L72.136,23.889z"/>
	</g>
	
		<line display="inline" fill="none" stroke="#000000" stroke-width="4" stroke-linejoin="round" stroke-miterlimit="10" x1="69.138" y1="57.54" x2="70.834" y2="63.651"/>
</g>
<g id="marketing" display="none">
	<g display="inline">
		<path d="M72.136,27.889c24.261,0,43.998,19.692,43.998,43.898s-19.737,43.899-43.998,43.899
			c-24.261,0-43.999-19.693-43.999-43.899S47.875,27.889,72.136,27.889 M72.136,23.889c-26.509,0-47.999,21.445-47.999,47.898
			c0,26.454,21.49,47.899,47.999,47.899c26.507,0,47.998-21.445,47.998-47.899C120.134,45.334,98.643,23.889,72.136,23.889
			L72.136,23.889z"/>
	</g>
	<path display="inline" fill="none" stroke="#000000" stroke-width="4" stroke-linecap="round" stroke-miterlimit="10" d="
		M78.948,52.196c-2.134-0.739-4.426-1.141-6.812-1.141c-11.475,0-20.776,9.283-20.776,20.732c0,11.451,9.301,20.733,20.776,20.733
		c11.473,0,20.774-9.282,20.774-20.733c0-2.595-0.478-5.078-1.351-7.367"/>
	<path display="inline" fill="none" stroke="#000000" stroke-width="4" stroke-linecap="round" stroke-miterlimit="10" d="
		M75.11,60.715c-0.949-0.254-1.946-0.389-2.975-0.389c-6.344,0-11.485,5.131-11.485,11.46c0,6.33,5.142,11.461,11.485,11.461
		c6.342,0,11.483-5.132,11.483-11.461c0-1.162-0.174-2.284-0.496-3.34"/>
	<g display="inline">
		<path d="M72.136,67.666c-2.281,0-4.13,1.845-4.13,4.121c0,2.275,1.849,4.121,4.13,4.121c2.28,0,4.129-1.846,4.129-4.121
			C76.265,69.511,74.416,67.666,72.136,67.666L72.136,67.666z"/>
	</g>
	
		<line display="inline" fill="none" stroke="#000000" stroke-width="4" stroke-miterlimit="10" x1="72.117" y1="71.805" x2="91.591" y2="52.289"/>
	<polyline display="inline" fill="none" stroke="#000000" stroke-width="4" stroke-linecap="round" stroke-miterlimit="10" points="
		93.897,57.334 86.396,57.334 86.396,49.832 	"/>
	<polyline display="inline" fill="none" stroke="#000000" stroke-width="4" stroke-linecap="round" stroke-miterlimit="10" points="
		99.425,52.61 91.591,52.61 91.591,44.776 	"/>
</g>
<g id="EP_design" display="none">
	
		<circle display="inline" fill="none" stroke="#000000" stroke-width="4" stroke-miterlimit="10" cx="72.12" cy="44.295" r="4.164"/>
	
		<circle display="inline" fill="none" stroke="#000000" stroke-width="4" stroke-miterlimit="10" cx="72.12" cy="72.035" r="6.932"/>
	
		<circle display="inline" fill="none" stroke="#000000" stroke-width="4" stroke-miterlimit="10" cx="52.648" cy="52.625" r="4.165"/>
	
		<circle display="inline" fill="none" stroke="#000000" stroke-width="4" stroke-miterlimit="10" cx="44.319" cy="72.011" r="4.165"/>
	
		<circle display="inline" fill="none" stroke="#000000" stroke-width="4" stroke-miterlimit="10" cx="99.848" cy="72.011" r="4.165"/>
	
		<circle display="inline" fill="none" stroke="#000000" stroke-width="4" stroke-miterlimit="10" cx="91.518" cy="52.625" r="4.165"/>
	
		<circle display="inline" fill="none" stroke="#000000" stroke-width="4" stroke-miterlimit="10" cx="72.047" cy="99.775" r="4.165"/>
	
		<circle display="inline" fill="none" stroke="#000000" stroke-width="4" stroke-miterlimit="10" cx="91.518" cy="91.446" r="4.165"/>
	
		<circle display="inline" fill="none" stroke="#000000" stroke-width="4" stroke-miterlimit="10" cx="52.648" cy="91.446" r="4.165"/>
	
		<line display="inline" fill="none" stroke="#000000" stroke-width="4" stroke-miterlimit="10" x1="72.12" y1="52.625" x2="72.12" y2="60.919"/>
	
		<line display="inline" fill="none" stroke="#000000" stroke-width="4" stroke-miterlimit="10" x1="72.12" y1="83.131" x2="72.12" y2="91.446"/>
	
		<line display="inline" fill="none" stroke="#000000" stroke-width="4" stroke-miterlimit="10" x1="91.531" y1="72.035" x2="83.225" y2="72.035"/>
	
		<line display="inline" fill="none" stroke="#000000" stroke-width="4" stroke-miterlimit="10" x1="61.014" y1="72.035" x2="52.709" y2="72.035"/>
	
		<line display="inline" fill="none" stroke="#000000" stroke-width="4" stroke-miterlimit="10" x1="85.845" y1="85.761" x2="80.583" y2="80.499"/>
	
		<line display="inline" fill="none" stroke="#000000" stroke-width="4" stroke-miterlimit="10" x1="63.783" y1="63.698" x2="58.394" y2="58.31"/>
	
		<line display="inline" fill="none" stroke="#000000" stroke-width="4" stroke-miterlimit="10" x1="85.845" y1="58.309" x2="80.452" y2="63.702"/>
	
		<line display="inline" fill="none" stroke="#000000" stroke-width="4" stroke-miterlimit="10" x1="63.629" y1="80.524" x2="58.394" y2="85.76"/>
	<g display="inline">
		<path d="M72.137,27.889c24.261,0,43.998,19.692,43.998,43.898s-19.737,43.899-43.998,43.899
			c-24.261,0-43.999-19.693-43.999-43.899S47.875,27.889,72.137,27.889 M72.137,23.889c-26.509,0-47.999,21.445-47.999,47.898
			c0,26.454,21.49,47.899,47.999,47.899c26.507,0,47.998-21.445,47.998-47.899C120.135,45.334,98.644,23.889,72.137,23.889
			L72.137,23.889z"/>
	</g>
</g>
<g id="CRM__x26__data" display="none">
	<path display="inline" d="M91.242,59.473c0.179,1.643-1.021,3.132-2.663,3.31c-0.269,0.03-0.526,0.027-0.772-0.022l-4.743,5.877
		c0.102,0.23,0.16,0.497,0.189,0.764c0.177,1.643-1.021,3.135-2.663,3.313c-1.644,0.178-3.133-1.021-3.311-2.665
		c-0.029-0.268-0.028-0.54,0.021-0.787l-4.22-3.396c-0.231,0.101-0.496,0.16-0.767,0.188c-0.268,0.03-0.54,0.028-0.787-0.021
		l-6.057,7.547c0.101,0.23,0.158,0.48,0.188,0.75c0.178,1.641-1.021,3.131-2.664,3.311c-1.643,0.178-3.132-1.02-3.31-2.664
		c-0.178-1.643,1.021-3.131,2.663-3.311c0.27-0.029,0.526-0.027,0.773,0.023l6.074-7.534c-0.101-0.231-0.16-0.496-0.189-0.765
		c-0.178-1.644,1.02-3.132,2.663-3.311c1.642-0.178,3.133,1.02,3.311,2.663c0.028,0.269,0.027,0.54-0.021,0.788l4.22,3.396
		c0.232-0.101,0.498-0.16,0.766-0.189c0.27-0.029,0.543-0.028,0.788,0.021l4.727-5.891c-0.103-0.23-0.158-0.482-0.188-0.751
		c-0.178-1.643,1.021-3.131,2.664-3.31C89.574,56.632,91.063,57.83,91.242,59.473z"/>
	<g display="inline">
		<path d="M72.137,27.889c24.261,0,43.998,19.692,43.998,43.898s-19.737,43.899-43.998,43.899
			c-24.261,0-43.999-19.693-43.999-43.899S47.875,27.889,72.137,27.889 M72.137,23.889c-26.509,0-47.999,21.445-47.999,47.898
			c0,26.454,21.49,47.899,47.999,47.899c26.507,0,47.998-21.445,47.998-47.899C120.135,45.334,98.644,23.889,72.137,23.889
			L72.137,23.889z"/>
	</g>
	
		<polyline display="inline" fill="none" stroke="#000000" stroke-width="4" stroke-linecap="round" stroke-linejoin="round" stroke-miterlimit="10" points="
		90.26,87.955 53,87.955 53,56.021 	"/>
</g>
<g id="Content_management__x26__community" display="none">
	<g display="inline">
		<path d="M82.137,56.956c1.949,0,3.476,1.538,3.476,3.5s-1.526,3.5-3.476,3.5c-1.931,0-3.501-1.57-3.501-3.5
			S80.206,56.956,82.137,56.956 M62.136,56.956c1.949,0,3.475,1.538,3.475,3.5s-1.526,3.5-3.475,3.5c-1.93,0-3.5-1.57-3.5-3.5
			S60.207,56.956,62.136,56.956 M62.136,76.955c2.259,0,6.179,0.596,9.449,1.904c3.031,1.213,4.052,2.462,4.052,2.846v2.25h-27
			v-2.25c0-0.384,1.02-1.633,4.052-2.846C55.958,77.551,59.877,76.955,62.136,76.955 M88.049,77.751
			c1.192,0.287,2.403,0.655,3.536,1.108c3.031,1.213,4.052,2.462,4.052,2.846v2.25h-7.001v-2.25
			C88.636,80.336,88.438,79.015,88.049,77.751 M82.137,52.956c-4.151,0-7.501,3.35-7.501,7.5s3.35,7.5,7.501,7.5
			c4.149,0,7.476-3.35,7.476-7.5S86.286,52.956,82.137,52.956L82.137,52.956z M62.136,52.956c-4.15,0-7.5,3.35-7.5,7.5
			s3.35,7.5,7.5,7.5s7.475-3.35,7.475-7.5S66.286,52.956,62.136,52.956L62.136,52.956z M82.137,72.955
			c-0.726,0-1.551,0.051-2.425,0.125c2.899,2.102,4.924,4.926,4.924,8.625v6.25h15.001v-6.25
			C99.637,75.88,87.961,72.955,82.137,72.955L82.137,72.955z M62.136,72.955c-5.825,0-17.5,2.925-17.5,8.75v6.25h35v-6.25
			C79.637,75.88,67.961,72.955,62.136,72.955L62.136,72.955z"/>
	</g>
	<g display="inline">
		<path d="M72.137,27.889c24.261,0,43.998,19.692,43.998,43.898s-19.737,43.899-43.998,43.899
			c-24.261,0-43.999-19.693-43.999-43.899S47.875,27.889,72.137,27.889 M72.137,23.889c-26.509,0-47.999,21.445-47.999,47.898
			c0,26.454,21.49,47.899,47.999,47.899c26.507,0,47.998-21.445,47.998-47.899C120.135,45.334,98.644,23.889,72.137,23.889
			L72.137,23.889z"/>
	</g>
</g>
<g id="Production" display="none">
	<path display="inline" fill="none" stroke="#000000" stroke-width="4" stroke-miterlimit="10" d="M68.115,51.723
		c-0.356-0.322-0.721-0.634-1.135-0.926c-0.415-0.291-0.832-0.528-1.256-0.755l-0.204-3.989c-0.02-0.361-0.306-0.654-0.677-0.697
		l-5.937-0.525c-0.372-0.043-0.701,0.219-0.792,0.555l-0.914,3.896c-0.935,0.292-1.818,0.693-2.646,1.222l-3.558-1.809
		c-0.319-0.168-0.719-0.066-0.934,0.239l-3.43,4.88c-0.214,0.304-0.174,0.715,0.093,0.958l2.908,2.736
		c-0.218,0.958-0.283,1.933-0.253,2.902l-3.355,2.18c-0.307,0.204-0.42,0.598-0.255,0.933l2.507,5.406
		c0.157,0.347,0.539,0.506,0.884,0.403l3.822-1.16c0.357,0.323,0.733,0.643,1.136,0.926c0.403,0.283,0.831,0.529,1.256,0.755
		l0.204,3.989c0.021,0.361,0.307,0.652,0.678,0.695l5.936,0.525c0.373,0.043,0.702-0.219,0.793-0.555l0.913-3.896
		c0.936-0.291,1.817-0.692,2.645-1.222l3.559,1.809c0.319,0.169,0.72,0.066,0.934-0.236l3.43-4.881
		c0.213-0.305,0.174-0.717-0.092-0.96l-2.91-2.735c0.217-0.957,0.284-1.932,0.253-2.902l3.355-2.18
		c0.307-0.204,0.42-0.598,0.254-0.934l-2.506-5.407c-0.166-0.334-0.537-0.504-0.885-0.401L68.115,51.723z M64.821,62.948
		c-1.655,2.355-4.917,2.925-7.272,1.27s-2.924-4.917-1.269-7.271c1.654-2.354,4.916-2.924,7.271-1.269
		C65.906,57.332,66.475,60.594,64.821,62.948z"/>
	<path display="inline" fill="none" stroke="#000000" stroke-width="4" stroke-miterlimit="10" d="M89.008,74.876
		c-0.442-0.188-0.888-0.364-1.375-0.506c-0.487-0.139-0.958-0.226-1.434-0.302l-1.493-3.705c-0.137-0.335-0.503-0.518-0.868-0.438
		l-5.783,1.441c-0.364,0.081-0.591,0.436-0.566,0.783l0.405,3.979c-0.787,0.582-1.491,1.25-2.102,2.02l-3.953-0.55
		c-0.357-0.054-0.702,0.172-0.805,0.529l-1.65,5.732c-0.103,0.358,0.069,0.733,0.4,0.875l3.642,1.638
		c0.105,0.977,0.362,1.919,0.708,2.827l-2.462,3.155c-0.223,0.293-0.202,0.702,0.064,0.965l4.133,4.293
		c0.262,0.276,0.674,0.303,0.967,0.091l3.234-2.343c0.443,0.19,0.904,0.369,1.375,0.506c0.474,0.135,0.959,0.228,1.434,0.305
		l1.494,3.703c0.138,0.335,0.503,0.516,0.868,0.436l5.782-1.439c0.367-0.08,0.592-0.436,0.568-0.782l-0.408-3.981
		c0.79-0.58,1.492-1.247,2.103-2.018l3.954,0.549c0.356,0.056,0.701-0.171,0.806-0.527l1.65-5.732
		c0.102-0.357-0.07-0.735-0.401-0.879l-3.643-1.636c-0.105-0.975-0.359-1.918-0.706-2.826l2.461-3.155
		c0.223-0.292,0.202-0.702-0.064-0.966l-4.133-4.293c-0.267-0.263-0.672-0.301-0.967-0.091L89.008,74.876z M89.555,86.562
		c-0.796,2.767-3.692,4.369-6.46,3.574c-2.765-0.798-4.367-3.695-3.57-6.461c0.795-2.765,3.692-4.367,6.458-3.57
		C88.749,80.899,90.352,83.798,89.555,86.562z"/>
	<path display="inline" d="M58.041,90.511c0.183,0.009,0.368,0.012,0.562-0.004s0.375-0.047,0.555-0.083l1.035,1.125
		c0.094,0.103,0.25,0.118,0.37,0.04l1.879-1.295c0.12-0.078,0.153-0.235,0.098-0.358l-0.682-1.372
		c0.203-0.312,0.367-0.647,0.48-1.006l1.492-0.335c0.136-0.029,0.228-0.157,0.217-0.3l-0.182-2.277
		c-0.01-0.142-0.123-0.254-0.261-0.261l-1.526-0.097c-0.17-0.336-0.389-0.638-0.634-0.917l0.457-1.463
		c0.041-0.136-0.021-0.279-0.152-0.338l-2.061-0.982c-0.13-0.065-0.283-0.018-0.359,0.098l-0.844,1.275
		c-0.184-0.009-0.373-0.011-0.561,0.005c-0.187,0.015-0.374,0.046-0.555,0.084l-1.034-1.127c-0.095-0.101-0.25-0.117-0.372-0.038
		l-1.879,1.294c-0.119,0.079-0.152,0.235-0.097,0.357l0.682,1.373c-0.205,0.313-0.368,0.648-0.481,1.007l-1.492,0.337
		c-0.135,0.026-0.229,0.154-0.217,0.296l0.181,2.277c0.01,0.144,0.122,0.256,0.261,0.261l1.527,0.098
		c0.169,0.335,0.388,0.64,0.634,0.917l-0.458,1.464c-0.04,0.135,0.023,0.278,0.154,0.337l2.061,0.982
		c0.129,0.059,0.283,0.019,0.359-0.097L58.041,90.511z M56.27,86.395c-0.088-1.1,0.736-2.064,1.834-2.151
		c1.099-0.087,2.063,0.736,2.151,1.834c0.087,1.101-0.736,2.065-1.835,2.152C57.323,88.316,56.357,87.494,56.27,86.395z"/>
	<path display="inline" d="M82.332,61.852c0.123,0.136,0.251,0.268,0.398,0.394c0.148,0.125,0.299,0.232,0.451,0.333l-0.063,1.527
		c-0.006,0.14,0.093,0.26,0.233,0.29l2.245,0.414c0.14,0.029,0.274-0.059,0.322-0.185l0.488-1.452
		c0.364-0.077,0.718-0.198,1.051-0.372l1.292,0.818c0.117,0.075,0.273,0.051,0.365-0.059l1.482-1.739
		c0.093-0.107,0.093-0.266,0-0.368l-1.011-1.148c0.117-0.357,0.176-0.726,0.2-1.096l1.356-0.712
		c0.125-0.067,0.183-0.212,0.131-0.347L90.513,56c-0.047-0.139-0.188-0.213-0.323-0.185L88.69,56.12
		c-0.124-0.137-0.256-0.271-0.4-0.394c-0.142-0.122-0.297-0.232-0.451-0.333l0.065-1.528c0.004-0.139-0.094-0.26-0.235-0.29
		l-2.244-0.414c-0.141-0.028-0.274,0.059-0.321,0.184l-0.489,1.453c-0.366,0.077-0.718,0.199-1.052,0.372l-1.293-0.817
		c-0.114-0.077-0.271-0.053-0.362,0.056l-1.482,1.738c-0.095,0.109-0.095,0.267,0,0.368l1.011,1.149
		c-0.117,0.357-0.178,0.727-0.2,1.097l-1.359,0.71c-0.123,0.068-0.18,0.213-0.129,0.347l0.763,2.152
		c0.049,0.133,0.187,0.213,0.322,0.186L82.332,61.852z M83.989,57.688c0.716-0.839,1.98-0.939,2.818-0.224
		c0.839,0.716,0.938,1.979,0.226,2.818c-0.718,0.839-1.981,0.94-2.82,0.224C83.375,59.792,83.274,58.528,83.989,57.688z"/>
	<g display="inline">
		<path d="M72.137,27.889c24.261,0,43.998,19.692,43.998,43.898s-19.737,43.899-43.998,43.899
			c-24.261,0-43.999-19.693-43.999-43.899S47.875,27.889,72.137,27.889 M72.137,23.889c-26.509,0-47.999,21.445-47.999,47.898
			c0,26.454,21.49,47.899,47.999,47.899c26.507,0,47.998-21.445,47.998-47.899C120.135,45.334,98.644,23.889,72.137,23.889
			L72.137,23.889z"/>
	</g>
</g>
<g id="tech_dev" display="none">
	<path display="inline" d="M63.333,82.033l-9.2-9.2l9.2-9.2l-2.8-2.8l-12,12l12,12L63.333,82.033z M81.032,82.033l9.201-9.2
		l-9.201-9.2l2.801-2.8l12,12l-12,12L81.032,82.033z"/>
	<g display="inline">
		<path d="M72.137,27.889c24.261,0,43.998,19.692,43.998,43.898s-19.737,43.899-43.998,43.899
			c-24.261,0-43.999-19.693-43.999-43.899S47.875,27.889,72.137,27.889 M72.137,23.889c-26.509,0-47.999,21.445-47.999,47.898
			c0,26.454,21.49,47.899,47.999,47.899c26.507,0,47.998-21.445,47.998-47.899C120.135,45.334,98.644,23.889,72.137,23.889
			L72.137,23.889z"/>
	</g>
	
		<line display="inline" fill="none" stroke="#000000" stroke-width="4" stroke-miterlimit="10" x1="69" y1="83.962" x2="75.5" y2="60.833"/>
</g>
</svg>
