<svg xmlns="http://www.w3.org/2000/svg" viewBox="0 0 510 510"><path fill="#FFF" d="M459 0H51C23 0 0 23 0 51v408c0 28 23 51 51 51h408c28 0 51-23 51-51V51c0-28-23-51-51-51zM255 153c56.1 0 102 45.9 102 102s-45.9 102-102 102-102-45.9-102-102 45.9-102 102-102zM63.8 459c-7.7 0-12.8-5.1-12.8-12.8V229.5h53.6c-2.6 7.6-2.6 17.9-2.6 25.5 0 84.1 68.9 153 153 153s153-68.9 153-153c0-7.6 0-17.9-2.5-25.5H459v216.8c0 7.6-5.1 12.8-12.8 12.8H63.8zM459 114.8c0 7.7-5.1 12.8-12.8 12.8h-51c-7.6 0-12.8-5.1-12.8-12.8v-51c0-7.7 5.1-12.8 12.8-12.8h51c7.6 0 12.8 5.1 12.8 12.8v51z"/></svg>