<svg xmlns="http://www.w3.org/2000/svg" width="709.994" height="125.007" viewBox="0 0 709.994 125.007"><path fill="#383736" d="M662.736 105.295s13.75 25.12 47.26 18.645c0 0-5.697-5.195-14.965-18.645-5.187-7.107-24.214-35.937-24.214-35.937 6.34-2.75 11.38-6.73 15.125-11.933 3.746-5.202 5.62-11.787 5.62-19.743v-.295c0-10.114-2.98-18.118-8.93-24.01-3.365-3.54-7.73-6.285-13.11-8.257-5.374-1.96-11.95-2.945-19.726-2.945h-47.667v103.127h27.94v-31.23h12.24l20.43 31.223zm.735-65.844c0 3.738-1.29 6.704-3.885 8.917-2.59 2.21-6.29 3.316-11.088 3.316h-18.432V26.93h18.29c4.702 0 8.395 1.005 11.087 3.018 2.686 2.015 4.03 5.084 4.03 9.204v.3zM93.17 15.62C88.37 10.804 82.66 7 76.032 4.198 69.41 1.393 62.21 0 54.432 0 46.66 0 39.453 1.394 32.83 4.197s-12.382 6.63-17.28 11.49c-4.897 4.863-8.71 10.56-11.45 17.09C1.365 39.312 0 46.263 0 53.625v.294c0 7.363 1.365 14.29 4.1 20.772 2.74 6.483 6.502 12.132 11.306 16.945 4.8 4.812 10.513 8.614 17.142 11.415 6.62 2.8 13.824 4.2 21.596 4.2 7.78 0 14.978-1.4 21.602-4.2 6.627-2.8 12.383-6.626 17.282-11.49 4.896-4.863 8.712-10.557 11.45-17.092 2.735-6.53 4.103-13.478 4.103-20.846v-.294c0-7.366-1.366-14.295-4.102-20.77-2.737-6.486-6.506-12.133-11.308-16.942zm-13.1 38.3c0 3.737-.633 7.27-1.88 10.61-1.25 3.34-2.985 6.264-5.2 8.764-2.214 2.503-4.91 4.5-8.087 5.97-3.175 1.47-6.692 2.207-10.54 2.207-3.852 0-7.367-.76-10.544-2.283-3.18-1.522-5.896-3.56-8.163-6.115-2.257-2.558-4.017-5.5-5.27-8.84-1.25-3.34-1.875-6.874-1.875-10.61v-.293c0-3.73.603-7.266 1.8-10.61 1.206-3.338 2.94-6.26 5.204-8.764 2.262-2.505 4.958-4.49 8.088-5.965 3.128-1.474 6.616-2.213 10.47-2.213 3.85 0 7.366.763 10.54 2.286 3.18 1.522 5.926 3.562 8.23 6.115 2.31 2.55 4.098 5.5 5.345 8.84 1.247 3.338 1.88 6.875 1.88 10.604v.295zM171.46 2.06h-27.937v103.13h76.758V80.144h-48.82V2.06zm85.364 103.13h28.083V2.06h-28.083v103.13zm121.338-37.864l-22.9-65.265h-31.25l40.903 103.87h25.92l40.9-103.868h-30.673l-22.9 65.266zm120.715-2.8h48.38v-22.54h-48.38V26.372h53.427V2.06H471.37v103.13h81.65V80.88h-54.143V64.527z"/></svg>