<svg xmlns="http://www.w3.org/2000/svg" viewBox="0 0 850.4 850.4"><path fill="#FFF" d="M850.4 161.5c-31.3 13.9-64.9 23.3-100.2 27.5 36-21.6 63.6-55.8 76.7-96.4-33.8 20-71.1 34.5-110.8 42.4-31.8-34-77.1-55.1-127.3-55.1-96.3 0-174.5 78.1-174.5 174.4 0 13.7 1.5 27 4.5 39.7-145-7.3-273.5-76.7-359.5-182.3-15 25.7-23.6 55.7-23.6 87.7 0 60.5 30.8 113.9 77.6 145.2-28.6-1-55.5-8.8-79-21.9v2.2c0 84.5 60.2 155 139.9 171.1-14.6 3.9-30 6.1-46 6.1-11.3 0-22.2-1.1-32.8-3.2 22.2 69.3 86.6 119.8 162.9 121.2-59.7 46.8-134.9 74.6-216.6 74.6-14.1 0-28-.9-41.6-2.4 77.2 49.6 168.9 78.5 267.4 78.5 320.9 0 496.3-265.8 496.3-496.3l-.6-22.6c34.2-24.7 63.9-55.4 87.2-90.4z"/></svg>